<svg xmlns="http://www.w3.org/2000/svg" width="200" height="200" class="icon" viewBox="0 0 1024 1024"><path fill="#111" d="M1023.775 606.02c-17-326.343-279.386-588.73-605.77-605.97a32.2 32.2 0 0 0-33.999 31.999v63.197a31.68 31.68 0 0 0 29.999 31.798c258.787 14 466.777 223.99 481.776 482.976a32 32 0 0 0 31.799 29.999h64.196a32.2 32.2 0 0 0 31.999-33.998m-605.17-413.979a32.26 32.26 0 0 0-34.599 32.198v64.197a31.88 31.88 0 0 0 29.599 31.799C567.197 332.834 689.59 456.628 703.39 610.62a32.14 32.14 0 0 0 31.798 29.399h64.397a32.38 32.38 0 0 0 32.198-34.598c-16.799-220.15-192.99-396.34-413.18-413.38" opacity=".4"/><path fill="#111" d="M344.408 453.668c150.993 29.999 259.788 178.591 224.99 344.383-22.8 108.595-110.595 196.59-219.39 219.39C164.218 1056.437.025 915.044.025 736.013V240.04a47.88 47.88 0 0 1 47.998-47.998h95.995a47.88 47.88 0 0 1 47.998 47.998v495.975a95.995 95.995 0 1 0 129.393-89.995c-19.199-7.2-33.398-23.6-33.398-43.998V501.226c0-29.799 27.199-53.398 56.397-47.598z"/></svg>