<?xml version="1.0" standalone="no"?><!DOCTYPE svg PUBLIC "-//W3C//DTD SVG 1.1//EN" "http://www.w3.org/Graphics/SVG/1.1/DTD/svg11.dtd"><svg t="1705759352845" class="icon" viewBox="0 0 1024 1024" version="1.1" xmlns="http://www.w3.org/2000/svg" p-id="18816" xmlns:xlink="http://www.w3.org/1999/xlink" width="200" height="200"><path d="M1023.774881 606.020581C1006.775718 279.676649 744.388638 17.289569 418.004708 0.050418a32.198415 32.198415 0 0 0-33.998326 31.998424v63.196888a31.67844 31.67844 0 0 0 29.998523 31.798435c258.787258 13.999311 466.777017 223.988971 481.776278 482.976219a31.998424 31.998424 0 0 0 31.798435 29.998523h64.196839a32.198415 32.198415 0 0 0 31.998424-33.998326zM418.604679 192.040964a32.258412 32.258412 0 0 0-34.598297 32.198415v64.196839a31.87843 31.87843 0 0 0 29.598543 31.798434c153.592437 12.59938 275.986411 136.393284 289.785731 290.385702a32.138418 32.138418 0 0 0 31.798435 29.398553h64.396829a32.378406 32.378406 0 0 0 32.198414-34.598297C814.985162 385.27145 638.793837 209.080125 418.604679 192.040964z" opacity=".4" p-id="18817" fill="#111111"></path><path d="M344.408332 453.668082c150.992565 29.998523 259.787209 178.591206 224.988922 344.383043-22.798877 108.594653-110.594555 196.59032-219.389198 219.389198C164.217204 1056.438403 0.025289 915.045365 0.025289 736.01418V240.038601a47.877643 47.877643 0 0 1 47.997636-47.997637h95.995274a47.877643 47.877643 0 0 1 47.997636 47.997637v495.975579a95.995273 95.995273 0 1 0 129.393629-89.995569c-19.199055-7.199646-33.398356-23.598838-33.398355-43.997833v-100.795037c0-29.798533 27.198661-53.397371 56.397223-47.597657z" p-id="18818" fill="#111111"></path></svg>